<svg xmlns="http://www.w3.org/2000/svg" fill="none" viewBox="0 0 24 24" id="Trpc--Streamline-Svg-Logos" height="24" width="24">
  <desc>
    Trpc Streamline Icon: https://streamlinehq.com
  </desc>
  <path fill="#398ccb" d="M4.32665 19.117925h1.6964v0.86075h-1.6964v1.953075c-0.003425 0.14015 0.0158 0.27995 0.056925 0.413975 0.03115 0.099475 0.086525 0.189675 0.16115 0.262475 0.07195 0.06775 0.159425 0.1168 0.25475 0.1428 0.095275 0.025425 0.193175 0.0393 0.29165 0.04135l0.042225 0.00015c0.088775 0 0.18045 0 0.275025 -0.01255l0.056075 -0.006925 0.108725 -0.012325c0.0356 -0.004175 0.07065 -0.008725 0.105375 -0.014525l0.050925 -0.008075 0.095825 -0.014225c0.0309 -0.004675 0.060925 -0.009525 0.09065 -0.015325l0.070825 -0.0142c0.01125 -0.0023 0.0222 -0.004625 0.0329 -0.0069l0.061025 -0.013625c0.00965 -0.002275 0.019075 -0.004525 0.028225 -0.006775l0.113875 0.8019c-0.09165 0.0517 -0.188725 0.093125 -0.289475 0.1235 -0.114175 0.0361 -0.230525 0.064775 -0.348375 0.0859 -0.1235 0.02315 -0.25185 0.040525 -0.385975 0.05305 -0.134125 0.01255 -0.263425 0.01835 -0.39275 0.01835 -0.2288 0.0033 -0.456725 -0.029275 -0.675475 -0.0965 -0.1949 -0.0607 -0.37275 -0.1665 -0.51915 -0.3088 -0.150775 -0.147625 -0.264525 -0.328825 -0.33195 -0.5288 -0.08385 -0.2485 -0.1237 -0.50975 -0.117725 -0.77195v-2.065025H2.121705v-0.86075h1.037345v-1.1126h1.1676v1.1126Zm4.158025 2.258975v2.285025h-1.18015V17.54695h2.0544c0.310675 -0.00385 0.6203 0.03645 0.919625 0.119675 0.25555 0.07055 0.495075 0.189825 0.705375 0.351225 0.193425 0.154175 0.3467 0.3528 0.4468 0.579 0.10985 0.251425 0.16385 0.5237 0.15825 0.798025 0.002575 0.199275 -0.02375 0.39785 -0.078175 0.589575 -0.09325 0.333325 -0.2941 0.62645 -0.57125 0.833725 -0.141075 0.1068 -0.293875 0.197125 -0.455475 0.269225l1.3143 2.5234v0.055h-1.268925l-1.15025 -2.2889h-0.894525Zm0.000975 -0.959175h0.873275c0.16415 0.0032 0.32755 -0.02295 0.4825 -0.0772 0.129625 -0.046025 0.24595 -0.12325 0.3387 -0.224825 0.07225 -0.08055 0.1277 -0.1747 0.163075 -0.27695 0.034575 -0.104825 0.053375 -0.21415 0.055825 -0.32435l0.00015 -0.041375c0.002875 -0.1468 -0.022025 -0.292825 -0.07335 -0.430375 -0.046125 -0.119825 -0.1218 -0.22605 -0.22 -0.308775 -0.0945 -0.076275 -0.203025 -0.1333 -0.3194 -0.167925 -0.1248 -0.03635 -0.253775 -0.056075 -0.3836 -0.058675l-0.917175 -0.000175v1.910625Zm5.2359 3.2442h-1.178225V17.54695h2.091075c0.307175 -0.00435 0.612775 0.044625 0.9032 0.14475 0.253675 0.08755 0.487725 0.223925 0.688975 0.401425 0.187275 0.17395 0.3353 0.3858 0.43425 0.62145 0.09825 0.238275 0.150275 0.492925 0.15345 0.75035l-0.000025 0.051525c0.0027 0.261425 -0.049575 0.520475 -0.153425 0.7604 -0.0999 0.22895 -0.248025 0.433675 -0.43425 0.6002 -0.20195 0.177575 -0.4371 0.31335 -0.691875 0.3995 -0.29065 0.099 -0.596175 0.1473 -0.9032 0.1428h-0.910925l0.000975 2.242575Zm0 -3.1998h0.910925c0.14925 0.003 0.297675 -0.0229 0.437125 -0.07625 0.116875 -0.045875 0.222775 -0.1159 0.310725 -0.205525 0.080725 -0.086475 0.1428 -0.188625 0.182375 -0.3001 0.040925 -0.113925 0.0618 -0.234075 0.06175 -0.355125 0.0009 -0.135275 -0.01995 -0.26985 -0.06175 -0.398525 -0.038175 -0.119325 -0.100225 -0.22965 -0.182375 -0.324225 -0.0868 -0.094075 -0.19275 -0.16845 -0.310725 -0.218075 -0.13875 -0.05615 -0.2875 -0.0834 -0.437125 -0.0801h-0.910925v1.957925Zm7.95225 2.11615c-0.10805 0.23845 -0.262925 0.452725 -0.45545 0.630125 -0.197975 0.1775 -0.429225 0.313925 -0.6803 0.401425 -0.262525 0.089925 -0.537625 0.13715 -0.814825 0.14l-0.059425 -0.000075c-0.2364 0.0028 -0.471875 -0.029725 -0.69865 -0.0965 -0.20735 -0.0619 -0.403 -0.15775 -0.578975 -0.2837 -0.1592 -0.11705 -0.30005 -0.257225 -0.417825 -0.4159 -0.124 -0.1662 -0.227675 -0.34665 -0.3088 -0.537475 -0.08455 -0.2084 -0.146975 -0.4251 -0.186225 -0.646525 -0.0446 -0.246775 -0.066575 -0.4971 -0.065675 -0.74785v-0.823125c-0.0005 -0.235725 0.0192 -0.471075 0.058925 -0.70345 0.032675 -0.1886 0.083075 -0.37365 0.1505 -0.552675l0.026075 -0.06685c0.0853 -0.22395 0.204425 -0.433525 0.353175 -0.621425 0.140925 -0.177725 0.3078 -0.333225 0.495025 -0.46125 0.168225 -0.10855 0.351625 -0.191475 0.54425 -0.246075 0.187975 -0.05355 0.38205 -0.082325 0.5773 -0.08565l0.0586 -0.000225c0.304875 -0.005225 0.6083 0.043125 0.89645 0.142825 0.504725 0.1734 0.908825 0.558125 1.106825 1.053725 0.111025 0.274875 0.179025 0.565175 0.201675 0.86075h-1.175325c-0.006925 -0.16355 -0.03415 -0.325625 -0.08105 -0.482475 -0.037875 -0.126575 -0.101625 -0.243875 -0.1872 -0.3445 -0.086825 -0.09145 -0.193925 -0.1612 -0.31265 -0.2036 -0.144 -0.049375 -0.295575 -0.0729 -0.44775 -0.069475 -0.087075 -0.000325 -0.1739 0.009725 -0.2586 0.0299 -0.0771 0.018825 -0.151175 0.048375 -0.220025 0.087825 -0.11805 0.072225 -0.217275 0.171425 -0.2895 0.289475 -0.084475 0.135275 -0.14945 0.281775 -0.192975 0.4352 -0.0381 0.13975 -0.064575 0.2824 -0.079125 0.426525 -0.017625 0.166675 -0.026 0.334175 -0.0251 0.501775v0.830825c-0.001925 0.218425 0.0113 0.4367 0.039575 0.6533 0.0216 0.171475 0.06305 0.33985 0.1235 0.501775 0.03635 0.092175 0.08365 0.179675 0.1409 0.26055 0.0515 0.074075 0.114725 0.13925 0.1872 0.192975 0.076275 0.056425 0.162325 0.0983 0.253775 0.123525 0.1018 0.0281 0.20705 0.04175 0.31265 0.040525 0.140825 0.001675 0.281075 -0.018175 0.4159 -0.05885 0.11815 -0.0364 0.2262 -0.099825 0.31555 -0.185275 0.091725 -0.091125 0.161925 -0.201575 0.205525 -0.323275 0.055825 -0.152525 0.08835 -0.31255 0.0965 -0.47475h1.18015c-0.017025 0.28615 -0.08635 0.566775 -0.204575 0.827925Z" stroke-width="0.25"></path>
  <path fill="#398ccb" d="m16.505525 7.381075 2.97015 1.71475V12.52725l-2.97015 1.714725 -1.318525 -0.7625 -3.2062 1.850975 -3.186975 -1.840375 -1.3001 0.7519 -2.970175 -1.717625V9.095825l2.970175 -1.71475 2.97015 1.71475v3.428525l-0.898575 0.519625 2.4155 1.39485 2.4347 -1.405475 -0.88015 -0.509V9.095825l2.970175 -1.71475Zm-2.1982 2.6083v2.093025l1.8122 1.046v-2.093l-1.8122 -1.046025Zm4.396375 -0.002875L16.8915 11.0325v2.0959l1.8122 -1.0489v-2.093Zm-13.408175 0v2.093l1.8122 1.046025V11.0325l-1.8122 -1.046Zm4.396375 0 -1.8122 1.046v2.093025l1.8122 -1.046025v-2.093Zm6.813625 -1.71185 -1.8122 1.046025 1.8122 1.046975 1.8122 -1.046975 -1.8122 -1.046025Zm-9.0118 -0.0029 -1.8122 1.048925 1.8122 1.044075 1.8122 -1.044075 -1.8122 -1.048925Zm1.47735 -5.318875v0.89065l-2.748225 1.587375v2.68355l-0.77195 0.445825V4.985075l3.520175 -2.0322ZM11.94125 0.25l2.972075 1.7147425v0.9429575l3.5974 2.077375v3.553l-0.771975 -0.4458V5.4309l-2.825425 -1.631575v1.5949l-2.97015 1.71475 -2.970175 -1.71475V1.9647425L11.94125 0.25Zm-2.196275 2.6054v2.093l1.810275 1.046025v-2.092025l-1.810275 -1.047Zm4.39445 0 -1.810275 1.047v2.091075l1.810275 -1.045075v-2.093ZM11.94125 1.1416275l-1.810275 1.04602 1.810275 1.0460275 1.8122 -1.0460275 -1.8122 -1.04602Z" stroke-width="0.25"></path>
</svg>